<svg xmlns="http://www.w3.org/2000/svg" viewBox="0 0 512 512" role="img" aria-labelledby="title desc">
  <title id="title">Positiv Consult P</title>
  <desc id="desc">Rotes, fettes P-Monogramm mit transparentem Hintergrund.</desc>
  <g transform="translate(91.455 46.000) scale(0.288264 -0.288264) translate(-141.000 -1457.000)">
    <path fill="#D5333D" d="M655 742Q787 742 845.0 805.0Q903 868 903 981Q903 1031 888.0 1072.0Q873 1113 842.5 1142.5Q812 1172 765.5 1188.0Q719 1204 655 1204H479V742ZM655 1457Q809 1457 919.5 1420.5Q1030 1384 1101.5 1320.0Q1173 1256 1207.0 1169.0Q1241 1082 1241 981Q1241 872 1206.0 781.0Q1171 690 1099.0 625.0Q1027 560 916.5 523.5Q806 487 655 487H479V0H141V1457Z"/>
  </g>
</svg>
